<svg width="200" height="200" viewBox="0 0 200 200" fill="none" xmlns="http://www.w3.org/2000/svg">
<path fill-rule="evenodd" clip-rule="evenodd" d="M70.1636 25.7447C71.5663 21.7319 75.3526 19.0446 79.6034 19.0446H120.397C124.647 19.0446 128.434 21.7319 129.836 25.7447L181.769 174.306C182.905 177.556 180.492 180.956 177.049 180.956H124.445L111.163 128.159C122.363 123.715 130.282 112.782 130.282 100C130.282 83.2756 116.725 69.7177 100 69.7177C83.2755 69.7177 69.7176 83.2756 69.7176 100C69.7176 112.783 77.6373 123.715 88.8374 128.159L75.5552 180.956H22.9513C19.5078 180.956 17.0951 177.556 18.2313 174.306L70.1636 25.7447Z" fill="#CECDC2"/>
</svg>
