<svg width="533" height="162" viewBox="0 0 533 162" fill="none" xmlns="http://www.w3.org/2000/svg">
<g clip-path="url(#clip0_64_18)">
<path fill-rule="evenodd" clip-rule="evenodd" d="M56.599 0H111.588L168.187 161.911H108.538L95.2559 109.114C106.456 104.671 114.376 93.7379 114.376 80.9556C114.376 64.2311 100.818 50.6732 84.0933 50.6732C67.3687 50.6732 53.8109 64.2311 53.8109 80.9556C53.8109 93.738 61.7305 104.671 72.9307 109.114L59.6485 161.911H0L56.599 0Z" fill="#CECDC2"/>
<path d="M380.485 129.617L386.997 140.623H387.249L393.793 129.617H401.504L391.649 145.764L401.725 161.911H393.872L387.249 150.889H386.997L380.374 161.911H372.553L382.661 145.764L372.742 129.617H380.485Z" fill="#CECDC2"/>
<path d="M345.118 161.911V129.617H366.878V135.246H351.945V142.941H365.759V148.571H351.945V156.282H366.941V161.911H345.118Z" fill="#CECDC2"/>
<path d="M322.484 161.911H311.036V129.617H322.578C325.827 129.617 328.623 130.264 330.967 131.557C333.311 132.839 335.114 134.684 336.376 137.091C337.648 139.499 338.284 142.379 338.284 145.732C338.284 149.096 337.648 151.987 336.376 154.405C335.114 156.823 333.301 158.678 330.936 159.971C328.581 161.264 325.764 161.911 322.484 161.911ZM317.864 156.061H322.2C324.218 156.061 325.916 155.703 327.293 154.989C328.681 154.263 329.721 153.144 330.415 151.63C331.12 150.106 331.472 148.14 331.472 145.732C331.472 143.346 331.12 141.396 330.415 139.882C329.721 138.369 328.686 137.254 327.309 136.539C325.932 135.825 324.234 135.467 322.216 135.467H317.864V156.061Z" fill="#CECDC2"/>
<path d="M303.618 129.617V161.911H297.721L283.671 141.585H283.435V161.911H276.607V129.617H282.599L296.538 149.927H296.822V129.617H303.618Z" fill="#CECDC2"/>
<path d="M269.213 129.617V161.911H262.386V129.617H269.213Z" fill="#CECDC2"/>
<path d="M242.939 129.617V161.911H236.111V129.617H242.939Z" fill="#CECDC2"/>
<path d="M206.685 161.911H199.368L210.516 129.617H219.315L230.448 161.911H223.131L215.042 136.997H214.79L206.685 161.911ZM206.227 149.217H223.51V154.547H206.227V149.217Z" fill="#CECDC2"/>
<path d="M511.236 97.3232V65.0293H532.996V70.6587H518.064V78.3537H531.877V83.983H518.064V91.6938H533.059V97.3232H511.236Z" fill="#CECDC2"/>
<path d="M504.564 76.3353H497.657C497.531 75.4418 497.273 74.6481 496.884 73.9543C496.495 73.2499 495.996 72.6507 495.386 72.1566C494.777 71.6626 494.072 71.2841 493.273 71.0213C492.485 70.7585 491.628 70.6271 490.703 70.6271C489.032 70.6271 487.576 71.0423 486.335 71.8728C485.095 72.6928 484.133 73.8912 483.449 75.468C482.766 77.0344 482.425 78.9371 482.425 81.1762C482.425 83.4784 482.766 85.4127 483.449 86.979C484.143 88.5454 485.11 89.728 486.351 90.5269C487.591 91.3259 489.026 91.7254 490.656 91.7254C491.57 91.7254 492.417 91.6045 493.194 91.3627C493.983 91.1209 494.682 90.7687 495.292 90.3062C495.901 89.8331 496.406 89.2602 496.805 88.5874C497.215 87.9146 497.499 87.1472 497.657 86.2852L504.564 86.3168C504.385 87.799 503.938 89.2287 503.223 90.6058C502.519 91.9724 501.567 93.1971 500.369 94.2799C499.181 95.3521 497.762 96.2036 496.112 96.8343C494.472 97.4546 492.616 97.7647 490.545 97.7647C487.665 97.7647 485.089 97.1129 482.819 95.8094C480.559 94.5059 478.772 92.6189 477.457 90.1485C476.154 87.6781 475.502 84.6873 475.502 81.1762C475.502 77.6546 476.164 74.6586 477.489 72.1882C478.814 69.7178 480.611 67.8361 482.882 66.5431C485.152 65.2395 487.707 64.5878 490.545 64.5878C492.417 64.5878 494.151 64.8506 495.749 65.3762C497.357 65.9018 498.782 66.6692 500.022 67.6784C501.263 68.6771 502.272 69.9018 503.05 71.3525C503.838 72.8032 504.343 74.4641 504.564 76.3353Z" fill="#CECDC2"/>
<path d="M445.154 97.3232V65.0293H457.894C460.333 65.0293 462.415 65.4656 464.139 66.3381C465.873 67.2001 467.193 68.4248 468.097 70.0121C469.011 71.589 469.469 73.4444 469.469 75.5784C469.469 77.7229 469.006 79.5679 468.081 81.1132C467.156 82.648 465.816 83.8253 464.06 84.6453C462.315 85.4653 460.202 85.8753 457.721 85.8753H449.19V80.3878H456.617C457.921 80.3878 459.004 80.2091 459.866 79.8517C460.728 79.4943 461.369 78.9581 461.789 78.2433C462.22 77.5285 462.436 76.6402 462.436 75.5784C462.436 74.5062 462.22 73.6021 461.789 72.8662C461.369 72.1304 460.722 71.5732 459.85 71.1948C458.988 70.8058 457.9 70.6113 456.586 70.6113H451.981V97.3232H445.154ZM462.593 82.6269L470.62 97.3232H463.082L455.23 82.6269H462.593Z" fill="#CECDC2"/>
<path d="M430.932 65.0293H437.76V86.0014C437.76 88.3562 437.197 90.4166 436.073 92.1827C434.958 93.9487 433.397 95.3258 431.389 96.314C429.381 97.2916 427.042 97.7805 424.372 97.7805C421.692 97.7805 419.347 97.2916 417.34 96.314C415.332 95.3258 413.771 93.9487 412.656 92.1827C411.542 90.4166 410.985 88.3562 410.985 86.0014V65.0293H417.813V85.418C417.813 86.6479 418.081 87.7412 418.617 88.6978C419.163 89.6544 419.931 90.4061 420.919 90.9527C421.907 91.4993 423.058 91.7727 424.372 91.7727C425.697 91.7727 426.848 91.4993 427.826 90.9527C428.814 90.4061 429.576 89.6544 430.112 88.6978C430.659 87.7412 430.932 86.6479 430.932 85.418V65.0293Z" fill="#CECDC2"/>
<path d="M404.151 81.1762C404.151 84.6979 403.483 87.6939 402.148 90.1643C400.824 92.6347 399.016 94.5216 396.724 95.8252C394.443 97.1182 391.878 97.7647 389.029 97.7647C386.159 97.7647 383.584 97.1129 381.302 95.8094C379.021 94.5059 377.218 92.6189 375.894 90.1485C374.569 87.6781 373.907 84.6873 373.907 81.1762C373.907 77.6546 374.569 74.6586 375.894 72.1882C377.218 69.7178 379.021 67.8361 381.302 66.5431C383.584 65.2395 386.159 64.5878 389.029 64.5878C391.878 64.5878 394.443 65.2395 396.724 66.5431C399.016 67.8361 400.824 69.7178 402.148 72.1882C403.483 74.6586 404.151 77.6546 404.151 81.1762ZM397.229 81.1762C397.229 78.8951 396.887 76.9713 396.204 75.405C395.531 73.8386 394.579 72.6507 393.35 71.8413C392.12 71.0318 390.679 70.6271 389.029 70.6271C387.379 70.6271 385.938 71.0318 384.708 71.8413C383.478 72.6507 382.522 73.8386 381.839 75.405C381.166 76.9713 380.829 78.8951 380.829 81.1762C380.829 83.4574 381.166 85.3812 381.839 86.9475C382.522 88.5138 383.478 89.7017 384.708 90.5112C385.938 91.3206 387.379 91.7254 389.029 91.7254C390.679 91.7254 392.12 91.3206 393.35 90.5112C394.579 89.7017 395.531 88.5138 396.204 86.9475C396.887 85.3812 397.229 83.4574 397.229 81.1762Z" fill="#CECDC2"/>
<path d="M361.12 74.3169C360.994 73.0449 360.453 72.0568 359.496 71.3525C358.54 70.6481 357.241 70.296 355.601 70.296C354.487 70.296 353.546 70.4536 352.779 70.769C352.012 71.0739 351.423 71.4996 351.013 72.0463C350.613 72.5929 350.414 73.2131 350.414 73.907C350.393 74.4851 350.513 74.9897 350.776 75.4207C351.05 75.8517 351.423 76.2249 351.896 76.5403C352.369 76.8451 352.916 77.1132 353.536 77.3445C354.156 77.5652 354.818 77.7545 355.523 77.9122L358.424 78.606C359.833 78.9213 361.126 79.3418 362.303 79.8674C363.48 80.3931 364.5 81.0396 365.362 81.807C366.224 82.5744 366.892 83.4784 367.365 84.5192C367.848 85.5599 368.095 86.753 368.106 88.0986C368.095 90.0749 367.591 91.7884 366.592 93.2391C365.604 94.6793 364.174 95.7989 362.303 96.5978C360.442 97.3862 358.198 97.7805 355.57 97.7805C352.963 97.7805 350.692 97.381 348.758 96.5821C346.834 95.7831 345.331 94.6005 344.248 93.0341C343.176 91.4573 342.613 89.5073 342.561 87.184H349.168C349.242 88.2668 349.552 89.1709 350.098 89.8962C350.655 90.6111 351.397 91.1524 352.322 91.5204C353.257 91.8778 354.314 92.0565 355.491 92.0565C356.647 92.0565 357.651 91.8883 358.503 91.5519C359.365 91.2155 360.032 90.7477 360.505 90.1485C360.979 89.5493 361.215 88.8607 361.215 88.0828C361.215 87.3575 361 86.7478 360.569 86.2537C360.148 85.7596 359.528 85.3391 358.708 84.9922C357.898 84.6453 356.905 84.3299 355.728 84.0461L352.211 83.1631C349.489 82.5008 347.339 81.4653 345.762 80.0567C344.185 78.648 343.402 76.7505 343.412 74.3642C343.402 72.4089 343.922 70.7007 344.973 69.2395C346.035 67.7783 347.491 66.6377 349.341 65.8177C351.192 64.9977 353.294 64.5878 355.649 64.5878C358.046 64.5878 360.138 64.9977 361.925 65.8177C363.722 66.6377 365.12 67.7783 366.119 69.2395C367.118 70.7007 367.633 72.3932 367.664 74.3169H361.12Z" fill="#CECDC2"/>
<path d="M324.131 65.0293V97.3232H318.234L304.184 76.9976H303.947V97.3232H297.12V65.0293H303.112L317.051 85.3391H317.335V65.0293H324.131Z" fill="#CECDC2"/>
<path d="M268.155 97.3232V65.0293H289.915V70.6587H274.982V78.3537H288.796V83.983H274.982V91.6938H289.978V97.3232H268.155Z" fill="#CECDC2"/>
<path d="M237.629 97.3232V65.0293H250.369C252.819 65.0293 254.906 65.4971 256.63 66.4327C258.354 67.3578 259.668 68.6455 260.572 70.296C261.486 71.9359 261.944 73.8281 261.944 75.9726C261.944 78.1172 261.481 80.0094 260.556 81.6493C259.631 83.2892 258.291 84.5665 256.535 85.481C254.79 86.3956 252.677 86.8529 250.196 86.8529H242.075V81.3812H249.092C250.406 81.3812 251.489 81.1552 252.341 80.7032C253.203 80.2406 253.844 79.6046 254.264 78.7952C254.695 77.9752 254.911 77.0344 254.911 75.9726C254.911 74.9004 254.695 73.9648 254.264 73.1658C253.844 72.3564 253.203 71.7309 252.341 71.2894C251.479 70.8374 250.385 70.6113 249.061 70.6113H244.456V97.3232H237.629Z" fill="#CECDC2"/>
<path d="M230.795 81.1762C230.795 84.6979 230.127 87.6939 228.792 90.1643C227.467 92.6347 225.659 94.5216 223.368 95.8252C221.086 97.1182 218.521 97.7647 215.673 97.7647C212.803 97.7647 210.227 97.1129 207.946 95.8094C205.665 94.5059 203.862 92.6189 202.537 90.1485C201.213 87.6781 200.551 84.6873 200.551 81.1762C200.551 77.6546 201.213 74.6586 202.537 72.1882C203.862 69.7178 205.665 67.8361 207.946 66.5431C210.227 65.2395 212.803 64.5878 215.673 64.5878C218.521 64.5878 221.086 65.2395 223.368 66.5431C225.659 67.8361 227.467 69.7178 228.792 72.1882C230.127 74.6586 230.795 77.6546 230.795 81.1762ZM223.872 81.1762C223.872 78.8951 223.531 76.9713 222.847 75.405C222.174 73.8386 221.223 72.6507 219.993 71.8413C218.763 71.0318 217.323 70.6271 215.673 70.6271C214.022 70.6271 212.582 71.0318 211.352 71.8413C210.122 72.6507 209.165 73.8386 208.482 75.405C207.809 76.9713 207.473 78.8951 207.473 81.1762C207.473 83.4574 207.809 85.3812 208.482 86.9475C209.165 88.5138 210.122 89.7017 211.352 90.5112C212.582 91.3206 214.022 91.7254 215.673 91.7254C217.323 91.7254 218.763 91.3206 219.993 90.5112C221.223 89.7017 222.174 88.5138 222.847 86.9475C223.531 85.3812 223.872 83.4574 223.872 81.1762Z" fill="#CECDC2"/>
<path d="M453.173 0.441528V32.7354H447.276L433.226 12.4098H432.99V32.7354H426.162V0.441528H432.154L446.093 20.7514H446.377V0.441528H453.173Z" fill="#CECDC2"/>
<path d="M396.736 32.7354H389.419L400.568 0.441528H409.366L420.499 32.7354H413.182L405.093 7.82119H404.841L396.736 32.7354ZM396.279 20.0418H413.561V25.3715H396.279V20.0418Z" fill="#CECDC2"/>
<path d="M362.205 32.7354V0.441528H383.965V6.07088H369.032V13.7659H382.845V19.3953H369.032V27.1061H384.028V32.7354H362.205Z" fill="#CECDC2"/>
<path d="M331.678 32.7354V0.441528H344.419C346.869 0.441528 348.955 0.909328 350.679 1.84493C352.403 2.77001 353.718 4.05777 354.622 5.70821C355.536 7.34813 355.993 9.24035 355.993 11.3849C355.993 13.5294 355.531 15.4216 354.606 17.0615C353.681 18.7015 352.34 19.9787 350.585 20.8933C348.84 21.8078 346.727 22.2651 344.246 22.2651H336.125V16.7935H343.142C344.456 16.7935 345.539 16.5674 346.39 16.1154C347.252 15.6529 347.894 15.0169 348.314 14.2074C348.745 13.3875 348.961 12.4466 348.961 11.3849C348.961 10.3126 348.745 9.37701 348.314 8.57807C347.894 7.76862 347.252 7.14314 346.39 6.70162C345.528 6.24959 344.435 6.02358 343.111 6.02358H338.506V32.7354H331.678Z" fill="#CECDC2"/>
<path d="M324.845 16.5885C324.845 20.1101 324.177 23.1061 322.842 25.5765C321.517 28.0469 319.709 29.9339 317.418 31.2374C315.136 32.5304 312.571 33.1769 309.723 33.1769C306.853 33.1769 304.277 32.5252 301.996 31.2216C299.715 29.9181 297.912 28.0311 296.587 25.5607C295.263 23.0903 294.601 20.0996 294.601 16.5885C294.601 13.0668 295.263 10.0708 296.587 7.60042C297.912 5.13002 299.715 3.24831 301.996 1.95529C304.277 0.651765 306.853 0 309.723 0C312.571 0 315.136 0.651765 317.418 1.95529C319.709 3.24831 321.517 5.13002 322.842 7.60042C324.177 10.0708 324.845 13.0668 324.845 16.5885ZM317.922 16.5885C317.922 14.3073 317.581 12.3835 316.897 10.8172C316.224 9.25085 315.273 8.06296 314.043 7.25351C312.813 6.44406 311.373 6.03934 309.723 6.03934C308.072 6.03934 306.632 6.44406 305.402 7.25351C304.172 8.06296 303.215 9.25085 302.532 10.8172C301.859 12.3835 301.523 14.3073 301.523 16.5885C301.523 18.8696 301.859 20.7934 302.532 22.3597C303.215 23.9261 304.172 25.114 305.402 25.9234C306.632 26.7329 308.072 27.1376 309.723 27.1376C311.373 27.1376 312.813 26.7329 314.043 25.9234C315.273 25.114 316.224 23.9261 316.897 22.3597C317.581 20.7934 317.922 18.8696 317.922 16.5885Z" fill="#CECDC2"/>
<path d="M264.252 32.7354V0.441528H276.993C279.432 0.441528 281.513 0.877791 283.237 1.75031C284.972 2.61233 286.291 3.83701 287.195 5.42438C288.11 7.00122 288.567 8.85665 288.567 10.9907C288.567 13.1352 288.104 14.9801 287.179 16.5254C286.254 18.0602 284.914 19.2376 283.158 20.0575C281.413 20.8775 279.3 21.2875 276.819 21.2875H268.289V15.8H275.716C277.019 15.8 278.102 15.6213 278.964 15.2639C279.826 14.9065 280.467 14.3704 280.888 13.6555C281.319 12.9407 281.534 12.0524 281.534 10.9907C281.534 9.9184 281.319 9.01434 280.888 8.27847C280.467 7.54261 279.821 6.98546 278.948 6.60701C278.086 6.21806 276.998 6.02358 275.684 6.02358H271.08V32.7354H264.252ZM281.692 18.0392L289.718 32.7354H282.181L274.328 18.0392H281.692Z" fill="#CECDC2"/>
<path d="M250.03 0.441528H256.858V21.4136C256.858 23.7684 256.296 25.8288 255.171 27.5949C254.057 29.361 252.496 30.7381 250.488 31.7262C248.48 32.7039 246.141 33.1927 243.471 33.1927C240.79 33.1927 238.446 32.7039 236.438 31.7262C234.43 30.7381 232.869 29.361 231.755 27.5949C230.64 25.8288 230.083 23.7684 230.083 21.4136V0.441528H236.911V20.8302C236.911 22.0601 237.179 23.1534 237.715 24.11C238.262 25.0667 239.029 25.8183 240.017 26.3649C241.006 26.9116 242.157 27.1849 243.471 27.1849C244.795 27.1849 245.946 26.9116 246.924 26.3649C247.912 25.8183 248.674 25.0667 249.211 24.11C249.757 23.1534 250.03 22.0601 250.03 20.8302V0.441528Z" fill="#CECDC2"/>
<path d="M201.118 32.7354V0.441528H222.879V6.07088H207.946V13.7659H221.759V19.3953H207.946V27.1061H222.942V32.7354H201.118Z" fill="#CECDC2"/>
</g>
<defs>
<clipPath id="clip0_64_18">
<rect width="533" height="162" fill="white"/>
</clipPath>
</defs>
</svg>
